<svg width="177" height="143" viewBox="0 0 177 143" fill="none" xmlns="http://www.w3.org/2000/svg">
<path d="M101.252 0V1.29177H99.955V2.57866H98.6582V3.87472H102.549V0H101.252Z" fill="#363087"/>
<path d="M75.7305 0V1.29177H77.0275V2.57866H78.3243V3.87472H74.4336V0H75.7305Z" fill="#363087"/>
<path d="M74.4336 5.17236H102.549V6.47128H74.4336V5.17236Z" fill="#008C9D"/>
<path d="M99.4971 50.1302L99.4941 84.9015L102.548 84.9021L102.551 50.1302H99.4971Z" fill="#363087"/>
<path d="M94.4834 50.1302L94.4804 81.8526L92.5476 81.8519L92.5483 80.1496V80.1242L92.5489 77.0966H89.496V77.0995L74.4482 77.0966V80.146L89.4946 80.1489L89.494 81.8519L74.4482 81.8499V84.9L89.4931 84.9015V84.9022L92.5462 84.9028V84.9022L97.5554 84.9028V84.9022V83.5571V81.8526L97.5583 50.1302H94.4834Z" fill="#363087"/>
<path d="M89.4664 53.1829L89.467 55.1319L87.5462 55.1327L87.545 53.1829H89.4664ZM77.5051 53.1843L84.4917 53.1837L84.4927 55.1333H84.4917V58.1836L92.5208 58.1807V58.1504H92.5214L92.5201 53.1823H92.5513V50.1329H92.5188H89.4657L87.5442 50.1335V50.1329H84.4911V50.1335L74.643 50.1355V50.147H74.4521L74.4492 75.146L77.5022 75.1466L77.5051 53.1843Z" fill="#363087"/>
<path d="M86.3645 65.14V65.138L87.5543 65.1386V65.14H89.4565V65.1386L90.6462 65.1393V65.14H92.3647H92.4649H92.5479L92.5494 60.1593L90.6478 60.1586L90.6469 63.2079L89.4565 63.2073L89.458 60.1593L87.5558 60.1586L87.5549 63.2066H86.3651L86.3661 60.1593L84.4644 60.1586L84.4629 63.205V65.1372V65.14H86.3645Z" fill="#363087"/>
<path d="M89.4946 72.0961H87.517L87.5186 70.0017L89.4952 70.0026L89.4946 72.0961ZM92.5497 70.0032L92.5505 66.9537H92.5497H91.8507L84.5854 66.9509V66.953H84.4661L84.4641 72.0955L82.5099 72.0947L82.5078 55.1311H79.4541L79.457 75.1461H82.5106V75.1441L92.5483 75.1461L92.5491 72.0969H92.5477L92.5491 70.0032H92.5497Z" fill="#363087"/>
<path d="M65.9558 55.256C65.8884 55.2973 65.8409 55.3617 65.8216 55.439L65.2546 57.7447C65.236 57.8212 65.2481 57.9006 65.2893 57.9681C65.3306 58.036 65.3951 58.0836 65.4717 58.1021L67.7162 58.6528L67.1838 60.8169C67.1655 60.8934 67.1774 60.9729 67.2188 61.0402C67.2592 61.1075 67.3244 61.1559 67.4016 61.1749L69.7094 61.7406L69.7811 61.7492L69.9337 61.7066C70.0011 61.6656 70.0487 61.6009 70.0678 61.5237L70.6344 59.2181C70.6535 59.1408 70.6416 59.062 70.6002 58.994C70.5598 58.9266 70.4945 58.8791 70.418 58.8599L68.1734 58.3098L68.7058 56.1457C68.7242 56.0686 68.7121 55.99 68.6709 55.9218C68.6298 55.8545 68.5653 55.807 68.4885 55.7878L66.18 55.222C66.1035 55.2037 66.0232 55.2149 65.9558 55.256Z" fill="#008C9D"/>
<path d="M52.6448 72.4694C52.6888 72.5353 52.7556 72.58 52.8337 72.5957L52.9161 72.6006L53.0559 72.5517L55.0328 71.2337C55.1683 71.143 55.2052 70.9591 55.1144 70.8231L53.7948 68.8485C53.7507 68.7825 53.6833 68.7378 53.6059 68.7224C53.5287 68.7076 53.4498 68.723 53.3844 68.7671L51.4069 70.085C51.2713 70.1757 51.2344 70.3595 51.3252 70.495L52.6448 72.4694Z" fill="#008C9D"/>
<path d="M55.4202 76.3051C55.4642 76.3708 55.531 76.4155 55.6091 76.4313L55.6915 76.4362L55.8313 76.3872L57.8081 75.0685C57.9437 74.9786 57.9806 74.7942 57.8898 74.6587L56.5702 72.684C56.526 72.6176 56.4587 72.5735 56.3813 72.5579C56.3041 72.5431 56.2252 72.5579 56.1598 72.6026L54.1822 73.9205C54.0467 74.0113 54.0098 74.1951 54.1006 74.3305L55.4202 76.3051Z" fill="#008C9D"/>
<path d="M65.3275 53.1126H67.7047C67.8678 53.1126 68.0006 52.9799 68.0006 52.817V50.4426C68.0006 50.2794 67.8678 50.1467 67.7047 50.1467H65.3275C65.1642 50.1467 65.0312 50.2794 65.0312 50.4426V52.817C65.0312 52.9799 65.1642 53.1126 65.3275 53.1126Z" fill="#008C9D"/>
<path d="M69.1711 53.1126H71.5482C71.7115 53.1126 71.8442 52.9799 71.8442 52.817V50.4426C71.8442 50.2794 71.7115 50.1467 71.5482 50.1467H69.1711C69.0079 50.1467 68.875 50.2794 68.875 50.4426V52.817C68.875 52.9799 69.0079 53.1126 69.1711 53.1126Z" fill="#008C9D"/>
<path d="M48.3329 58.1829L46.1069 57.3506V57.35C45.9537 57.2932 45.7825 57.3712 45.7249 57.5236L44.8973 59.7345L42.8055 58.9515C42.7316 58.924 42.6513 58.9267 42.5791 58.9593C42.5065 58.9919 42.452 59.051 42.4243 59.1253L41.5903 61.3481C41.5625 61.4225 41.5653 61.5032 41.598 61.5748C41.6315 61.6464 41.6903 61.7018 41.764 61.7295L43.9902 62.5619L44.0939 62.5808L44.2166 62.5539C44.2883 62.5213 44.343 62.4626 44.3706 62.3887L45.1997 60.1775L47.2917 60.9602L47.3952 60.9793L47.5187 60.9524C47.5904 60.9198 47.6452 60.861 47.6722 60.7871L48.5069 58.5639C48.5637 58.4106 48.4854 58.2405 48.3329 58.1829Z" fill="#008C9D"/>
<path d="M52.53 66.9563C52.5449 66.8789 52.5293 66.8003 52.4853 66.7343L51.1608 64.7626C51.069 64.6279 50.8853 64.5918 50.7491 64.6818L48.7758 66.0055C48.7104 66.0502 48.6657 66.1162 48.65 66.1942C48.635 66.2713 48.6508 66.3508 48.6955 66.4168L50.0194 68.3878C50.064 68.4531 50.1308 68.4978 50.2089 68.5126L50.2835 68.5183L50.4311 68.4679L52.4044 67.145C52.4705 67.1009 52.5152 67.0336 52.53 66.9563Z" fill="#008C9D"/>
<path d="M71.8177 75.1847L50.9727 92.7115L53.2875 94.6149L71.8177 79.1261V75.1847Z" fill="#008C9D"/>
<path d="M71.817 69.1525L49.042 86.7635L45.715 83.3816L54.2636 77.5811C54.3581 77.516 54.3813 77.3884 54.3161 77.294L52.849 75.1578C52.7842 75.0641 52.6558 75.0409 52.5621 75.1053C52.5621 75.1053 50.5738 76.4483 48.3308 77.9634C47.9979 77.4153 47.6343 76.8178 47.2597 76.2058L51.535 73.3371C51.63 73.2732 51.6549 73.1458 51.5905 73.0514L50.1459 70.9001C50.0818 70.8059 49.9543 70.7805 49.8591 70.8449L49.7008 70.9514L45.6811 73.6477L45.6768 73.6413C45.3517 73.1208 45.006 72.5266 44.6631 71.9091L48.8276 69.4263C48.9264 69.3682 48.9589 69.2418 48.9007 69.1439L47.5693 66.9206C47.5117 66.8221 47.3853 66.7895 47.2867 66.8477L43.252 69.2533C42.9639 68.689 42.7076 68.1763 42.4995 67.7552L46.5344 65.5388C46.6166 65.4863 46.6926 65.4176 46.6244 65.3013L45.3354 62.965C45.2778 62.8665 45.1679 62.8581 45.0691 62.9162L36.9479 67.3559C34.9738 62.1732 33.3861 55.7914 33.0403 50.6411C33.0326 50.527 32.9942 50.4886 32.86 50.5028C32.7442 50.5155 30.7248 50.7305 30.1726 50.7886C30.0846 50.7984 30.0364 50.8516 30.0462 50.9685C30.5063 56.1869 31.4518 62.9935 34.5019 70.5777L35.1556 71.7887L39.8604 69.2043C40.6219 70.7435 41.9593 73.3677 43.127 75.233C43.9541 76.554 45.0137 78.2916 45.8372 79.6481C43.8802 80.9697 42.2242 82.0877 42.0949 82.1741C41.7678 82.3926 41.7862 82.8754 41.916 83.0527C43.9696 85.8531 46.4569 88.6169 48.5672 90.5526C48.6908 90.6652 49.0407 90.6944 49.2614 90.5177C49.4615 90.3562 64.9402 78.5307 71.817 73.0088V69.1525Z" fill="#008C9D"/>
<path d="M68.7421 66.2219L64.9523 68.6935C64.2695 67.7322 62.854 65.7411 62.854 65.7411L68.7421 66.2219ZM38.6387 63.7681L38.6502 63.8007L38.68 63.8171C38.719 63.8397 39.0682 64.0276 39.2009 63.8028L40.7711 61.1448L40.7542 61.1036C40.3225 60.0429 39.1777 55.818 39.1144 55.6685C39.2849 55.4912 39.7 54.899 40.8777 52.9939L57.0945 52.7004L48.4593 55.9188L49.0826 57.4084C49.097 57.4416 50.9943 61.5665 54.1501 66.5644C57.2359 71.4502 59.8465 74.1415 59.98 74.26C59.98 74.26 60.107 74.3806 60.3058 74.5485C60.5052 74.7165 61.1497 74.8476 61.4153 74.6486C61.6481 74.4733 69.8998 68.7418 71.5601 67.4959C71.7909 67.3229 71.8505 66.8722 71.8505 66.8722V64.4643C71.8505 64.4643 71.7065 64.1311 71.4523 64.0779C69.6301 63.6942 61.32 62.6224 61.0057 62.5542C60.6479 62.4763 60.3392 62.5926 60.1872 62.6888C60.0665 62.7656 58.7172 63.6163 58.1622 63.9665C58.0165 64.0588 58.0635 64.3005 58.152 64.4196C58.2197 64.5111 61.32 68.7276 62.4851 70.3022L61.1264 71.1878C60.0767 70.1151 58.6397 68.0441 56.6934 64.9627C56.325 64.3793 55.9907 63.8417 55.6713 63.3237L63.3262 59.2112C63.5327 59.2715 63.5846 59.0916 63.5057 58.9481L62.3736 56.8177C62.3076 56.693 62.1691 56.6049 61.9711 56.7028L54.1998 60.8768C53.4645 59.6111 52.9137 58.581 52.5146 57.7246L63.4952 53.2945C63.8819 53.1663 64.1141 52.7805 64.0473 52.3794L63.7839 50.7996C63.7165 50.4012 63.3751 50.2153 62.9704 50.2153H40.2089C39.6255 50.2153 39.2551 50.4593 39.0662 50.752C38.9128 50.9897 37.0894 53.8109 36.4079 54.8652C36.2503 55.1104 36.2262 55.6401 36.2795 55.8229C36.9581 58.1641 38.6198 63.7106 38.6387 63.7681Z" fill="#008C9D"/>
<path d="M98.413 91.6643L98.7728 90.6993C99.0831 89.908 99.3266 88.9055 100.367 88.9055H102.618V87.0906H100.008C98.9667 87.0906 98.2732 87.9343 97.8445 88.7561C97.4213 88.2661 97.0437 87.8377 97.0168 87.8079L96.7754 87.5344H94.5039V89.3493H96.0458C96.5163 89.7202 98.413 91.6643 98.413 91.6643Z" fill="#008C9D"/>
<path d="M68.5513 83.3928C68.4738 83.3758 68.3945 83.3898 68.3277 83.4325C68.2617 83.4749 68.2156 83.541 68.1984 83.6183L67.701 85.872L65.5224 85.3928C65.4458 85.3757 65.3656 85.3901 65.2996 85.4325C65.2328 85.4751 65.1867 85.5409 65.1697 85.6183L64.6586 87.9369C64.6415 88.014 64.6549 88.0936 64.6975 88.16C64.7402 88.226 64.8069 88.2722 64.8836 88.2891L67.2053 88.8003C67.2827 88.8172 67.3623 88.8031 67.4283 88.7607C67.4951 88.718 67.5412 88.6513 67.5582 88.5748L68.0551 86.3202L70.2342 86.8001C70.311 86.8172 70.3904 86.803 70.4572 86.7605C70.524 86.718 70.5701 86.652 70.5871 86.5748L71.0982 84.2563L71.1045 84.1847L71.0584 84.033C71.0156 83.967 70.9498 83.921 70.8723 83.9033L68.5513 83.3928Z" fill="#008C9D"/>
<path d="M81.6058 90.6376C81.6611 90.6942 81.7351 90.726 81.8137 90.7275C81.8933 90.7283 81.9679 90.6985 82.0247 90.6439L83.6843 89.038L85.2365 90.6376C85.2921 90.6951 85.3657 90.726 85.4446 90.7275C85.5241 90.7289 85.5985 90.6994 85.6554 90.6439L87.3626 88.9927L87.4073 88.9366L87.4527 88.7842C87.4534 88.7054 87.4242 88.6311 87.3689 88.5737L85.7149 86.8693C85.6596 86.8118 85.586 86.7797 85.5071 86.7791C85.4275 86.7777 85.3532 86.8075 85.2962 86.8622L83.6367 88.4686L82.0843 86.8684C82.029 86.8118 81.955 86.7797 81.8761 86.7783C81.7968 86.7777 81.7222 86.8069 81.6654 86.8622L79.9583 88.5142C79.9022 88.5694 79.8696 88.643 79.8682 88.7218C79.8667 88.8006 79.8966 88.8755 79.9518 88.9323L81.6058 90.6376Z" fill="#008C9D"/>
<path d="M146.608 50.1467H112.166C112.035 50.1467 111.93 50.2523 111.93 50.3829V52.9132C111.93 53.0437 112.035 53.1494 112.166 53.1494H146.645C146.838 53.1494 146.995 52.9934 146.995 52.8013V50.5324C146.995 50.3196 146.821 50.1467 146.608 50.1467Z" fill="#008C9D"/>
<path d="M119.211 58.3362C119.375 58.3362 119.507 58.2036 119.507 58.0407V55.6661C119.507 55.503 119.375 55.3704 119.211 55.3704H116.834C116.671 55.3704 116.538 55.503 116.538 55.6661V58.0407C116.538 58.2036 116.671 58.3362 116.834 58.3362H119.211Z" fill="#008C9D"/>
<path d="M106.767 90.7084L106.915 90.6686L108.97 89.4753C109.039 89.4363 109.087 89.3725 109.108 89.2953C109.128 89.2195 109.117 89.14 109.077 89.0707L107.882 87.0186C107.801 86.8777 107.62 86.8294 107.478 86.9115L105.422 88.1048C105.281 88.1865 105.233 88.3679 105.316 88.5083L106.51 90.5609C106.565 90.6559 106.664 90.7084 106.767 90.7084Z" fill="#008C9D"/>
<path d="M115.702 61.2855C115.512 61.4337 115.403 61.6571 115.403 61.898V65.3176C115.403 65.5658 115.523 65.8004 115.725 65.9465C116.296 66.3429 128.149 75.2926 128.537 75.5095C128.588 75.538 128.675 75.5507 128.799 75.5507C129.078 75.5507 132.111 75.2729 132.862 75.1941C132.969 75.1828 133.074 75.104 133.099 75.0607C133.736 73.9995 135.762 69.6531 136.031 68.7846C136.073 68.6471 136.061 68.5088 135.997 68.3941C135.594 67.6815 135.331 67.3263 134.637 66.3882L134.427 66.1032C134.382 66.0431 134.285 65.9514 134.234 66.0267C133.904 67.0023 131.677 71.9772 131.52 72.2029C131.063 72.2567 129.423 72.4104 129.027 72.4156L118.429 64.7207L128.598 66.9307C128.999 67.0313 129.423 66.949 129.76 66.7073C130.097 66.4654 130.309 66.0897 130.342 65.6765L130.873 58.7919C130.887 58.6175 130.84 58.4417 130.74 58.2976L128.938 55.6829C128.794 55.4759 128.559 55.3524 128.306 55.3524L121.567 55.3774C121.437 55.3774 121.332 55.4821 121.332 55.6122V58.1446C121.332 58.2744 121.437 58.3801 121.567 58.3801L127.639 58.3561C127.705 58.3561 127.766 58.3821 127.81 58.4303C127.855 58.4786 127.876 58.541 127.871 58.6069L127.495 63.1041L116.369 61.1429C116.135 61.0848 115.892 61.1366 115.702 61.2855Z" fill="#008C9D"/>
<path d="M141.134 65.028C140.258 63.4514 139.054 61.3476 137.518 58.8243L137.508 58.6469C137.538 58.5897 137.595 58.5556 137.66 58.5556L142.722 58.754L142.859 58.8216L142.888 58.9711L141.134 65.028ZM144.125 55.8883C144.125 55.8883 143.944 55.665 143.533 55.665C143.122 55.665 133.991 55.4672 133.991 55.4672C133.895 55.4672 133.805 55.5204 133.739 55.5897C133.672 55.6593 133.638 55.7506 133.641 55.8466L133.65 58.0146L133.708 58.1947L139.873 69.1766C139.455 70.3229 138.54 72.5449 136.77 75.7597C135.519 78.0307 134.121 79.864 133.24 80.9262C133.125 81.0658 133.011 81.2028 132.899 81.3388C132.817 81.4402 132.67 81.4593 132.562 81.3814L105.108 61.7533V65.4513L132.855 85.3051C132.93 85.3596 133.018 85.3859 133.106 85.3859C133.219 85.3859 133.331 85.3418 133.414 85.2552L134.064 84.5797L134.109 84.5371C134.872 83.8089 137.091 80.9808 139.217 77.1172C141.716 72.5804 142.923 69.5728 142.974 69.414L142.995 69.3475L143.035 69.2673C143.035 69.2673 145.053 64.1914 146.061 58.7641C146.077 58.6761 146.075 58.601 146.012 58.5138C145.95 58.4258 144.125 55.8883 144.125 55.8883Z" fill="#008C9D"/>
<path d="M105.108 67.796V71.5332L128.984 89.3101C129.119 89.4094 129.276 89.4576 129.433 89.4576C129.664 89.4576 129.891 89.3528 130.039 89.1548L131.29 87.7532C131.358 87.6617 131.387 87.549 131.371 87.4362C131.354 87.3236 131.294 87.2234 131.202 87.1561L105.108 67.796Z" fill="#008C9D"/>
<path d="M105.168 54.0929H105.276H106.531H108.487V55.2842C108.494 55.3521 108.574 55.435 108.66 55.435H109.914C109.974 55.435 110.09 55.3706 110.09 55.2536V50.3147C110.09 50.2126 110.044 50.1302 109.932 50.1302H108.707C108.653 50.1302 108.555 50.1529 108.487 50.1933V52.492H106.707V50.3147C106.707 50.2126 106.661 50.1302 106.549 50.1302H105.324C105.269 50.1302 105.171 50.1529 105.104 50.1933V52.6502V53.8739V53.9412L105.119 53.9681L105.168 54.0929Z" fill="#008C9D"/>
<path d="M123.016 91.2822C122.135 92.0026 120.917 92.9327 119.399 93.9502L116.255 90.4506L118.695 88.0151L123.016 91.2822ZM92.8235 103.098V102.068L101.87 95.9807C101.981 95.9064 102.119 95.8857 102.247 95.9249C102.376 95.9639 102.479 96.0575 102.53 96.1808L104.483 100.923C100.084 102.215 96.0178 102.828 92.8235 103.098ZM105.107 77.7374L116.275 86.1844L113.306 89.1474L113.121 91.458L116.817 95.573C115.876 96.1276 114.858 96.6898 113.765 97.245L109.861 90.6909L109.845 90.6995L109.803 90.6264C109.721 90.4847 109.54 90.4372 109.398 90.5193L107.343 91.7118C107.202 91.7942 107.153 91.9757 107.236 92.1161L107.294 92.2166L107.277 92.2272L111.034 98.5334C109.937 99.0153 108.785 99.4819 107.569 99.9188C107.484 99.9491 107.401 99.9754 107.317 100.005L103.758 92.1536C103.675 91.9714 103.517 91.8337 103.323 91.7785C103.131 91.7227 102.923 91.7539 102.755 91.8635L92.8441 98.3715L92.8568 87.7464C92.8568 87.5833 92.7249 87.4401 92.5609 87.4393L90.1475 87.4367C89.9841 87.4367 89.8507 87.5691 89.8507 87.7323L89.8322 103.271C89.3333 103.286 88.8697 103.293 88.4586 103.293H87.4649V94.2878C87.4649 94.1759 87.3855 93.9516 87.2519 93.8644C86.606 93.4425 84.7015 92.1983 84.5361 92.0636C84.3936 91.9466 84.1614 91.9849 83.9427 92.0869C83.7603 92.1727 77.665 95.4683 76.2992 96.207C76.1261 96.3006 75.9792 96.4444 75.9388 96.745C75.9068 96.9769 75.6435 98.9048 75.5248 99.7704C75.4902 100.026 75.5859 100.311 75.7839 100.517C75.9153 100.653 76.5647 101.267 77.3811 102.032C74.7605 101.595 72.7054 100.996 71.3781 100.536L77.433 88.0811C77.4698 88.0116 77.4777 87.9315 77.4543 87.8556C77.4316 87.7803 77.3797 87.7179 77.31 87.6812L74.7859 86.1419C74.6412 86.066 74.4311 86.0888 74.2748 86.186C74.2748 86.186 61.5937 92.7583 61.3722 92.8761C61.1508 92.9938 61.0429 93.2164 61.0216 93.3703C61.0045 93.4972 60.6914 95.7872 60.5836 96.5764C60.5609 96.7417 60.607 96.9217 60.7496 97.1125C60.8918 97.3031 64.5431 101.333 64.5431 101.333L66.9586 99.6768L63.2498 95.289L73.4394 89.7835C73.4394 89.7835 67.4499 101.674 67.3888 101.782C67.2128 102.094 67.2609 102.351 67.5046 102.453C68.8176 103.001 73.3612 104.469 76.7684 104.977L81.5528 105.923L83.6496 102.893L78.7071 98.3455L84.4048 95.2923V106.176L87.262 106.31L87.2966 106.306C87.4351 106.308 87.6155 106.31 87.8348 106.31C91.8602 106.31 99.3752 106.053 108.586 102.745C119.369 98.8736 126.145 92.7521 126.428 92.4854L127.715 91.275L105.107 73.9598V77.7374Z" fill="#008C9D"/>
<path d="M112.088 61.3854L110.539 62.9893C110.485 63.046 110.455 63.121 110.456 63.1998C110.458 63.2785 110.49 63.3521 110.547 63.4077L112.258 65.0559C112.315 65.1097 112.389 65.1403 112.468 65.1382C112.547 65.1376 112.621 65.1048 112.677 65.0482L114.327 63.3394C114.382 63.2828 114.411 63.2076 114.41 63.1282C114.409 63.0494 114.376 62.9758 114.319 62.9212L112.656 61.3187L114.205 59.715C114.26 59.6575 114.289 59.5831 114.288 59.5045C114.286 59.4249 114.254 59.3514 114.197 59.2967L112.487 57.6482L112.429 57.6049L112.275 57.5653C112.197 57.5667 112.123 57.5994 112.067 57.656L110.417 59.3648C110.362 59.4216 110.333 59.4959 110.334 59.5753C110.335 59.6541 110.368 59.7277 110.425 59.7832L112.088 61.3854Z" fill="#008C9D"/>
<path d="M74.4356 19.3892H71.8447V20.6846H74.4356V19.3892Z" fill="#008C9D"/>
<path d="M82.9088 19.3889H78.165V20.6844H82.9088V19.3889Z" fill="#008C9D"/>
<path d="M102.548 20.685H105.151V19.3895H102.548V20.685Z" fill="#008C9D"/>
<path d="M98.5867 19.3892H93.8428V20.6846H98.5867V19.3892Z" fill="#008C9D"/>
<path d="M90.7477 19.3889H86.0039V20.6844H90.7477V19.3889Z" fill="#008C9D"/>
<path d="M76.9989 20.6801H75.7041V19.3096H76.9989V20.6801Z" fill="#008C9D"/>
<path d="M101.215 20.6802H99.9199V19.3457H101.215V20.6802Z" fill="#008C9D"/>
<path d="M74.4356 26.5226H71.8447V27.818H74.4356V26.5226Z" fill="#008C9D"/>
<path d="M82.9088 26.5226H78.165V27.818H82.9088V26.5226Z" fill="#008C9D"/>
<path d="M102.548 27.818H105.151V26.5226H102.548V27.818Z" fill="#008C9D"/>
<path d="M98.5867 26.5226H93.8428V27.818H98.5867V26.5226Z" fill="#008C9D"/>
<path d="M90.7477 26.5226H86.0039V27.818H90.7477V26.5226Z" fill="#008C9D"/>
<path d="M76.9989 27.8127H75.7041V26.4421H76.9989V27.8127Z" fill="#008C9D"/>
<path d="M101.215 27.8122H99.9199V26.4778H101.215V27.8122Z" fill="#008C9D"/>
<path d="M74.4356 33.6521H71.8447V34.9482H74.4356V33.6521Z" fill="#008C9D"/>
<path d="M82.9088 33.6521H78.165V34.9482H82.9088V33.6521Z" fill="#008C9D"/>
<path d="M102.548 34.9482H105.151V33.6521H102.548V34.9482Z" fill="#008C9D"/>
<path d="M98.5867 33.6521H93.8428V34.9482H98.5867V33.6521Z" fill="#008C9D"/>
<path d="M90.7477 33.6521H86.0039V34.9482H90.7477V33.6521Z" fill="#008C9D"/>
<path d="M76.9989 34.9429H75.7041V33.5725H76.9989V34.9429Z" fill="#008C9D"/>
<path d="M101.215 34.9427H99.9199V33.6091H101.215V34.9427Z" fill="#008C9D"/>
<path d="M101.214 20.6454H99.919V19.3494H101.214V20.6454ZM101.214 27.7978H99.919V26.5017H101.214V27.7978ZM101.214 34.9454H99.919V33.6493H101.214V34.9454ZM98.585 42.0914H93.8412V12.7775L95.4263 11.1547H96.9632L98.585 12.7775V42.0914ZM98.585 44.7346H93.8412V43.4132H98.585V44.7346ZM90.7463 42.0914H86.0025V12.7775L87.5869 11.1547H89.1245L90.7463 12.7775V42.0914ZM90.7463 44.7346H86.0025V43.4132H90.7463V44.7346ZM82.907 42.0914H78.1632V12.7775L79.7482 11.1547H81.2858L82.907 12.7775V42.0914ZM82.907 44.7346H78.1632V43.4132H82.907V44.7346ZM76.9978 20.6454H75.703V19.3494H76.9978V20.6454ZM76.9978 27.7978H75.703V26.5017H76.9978V27.7978ZM76.9978 34.9454H75.703V33.6493H76.9978V34.9454ZM74.4336 47.6141H102.549V7.67139H74.4336V47.6141Z" fill="#008C9D"/>
<path d="M33.2888 115.837C33.2888 115.627 33.3658 115.443 33.52 115.285C33.6742 115.127 33.8604 115.047 34.0785 115.047C34.2897 115.047 34.4739 115.125 34.6321 115.279C34.7902 115.433 34.8682 115.619 34.8682 115.837C34.8682 116.047 34.7912 116.231 34.6381 116.389C34.4839 116.547 34.2979 116.625 34.0785 116.625C33.8604 116.625 33.6742 116.549 33.52 116.395C33.3658 116.241 33.2888 116.055 33.2888 115.837ZM34.2486 121.893V118.774C33.9415 118.629 33.5562 118.556 33.0946 118.556C32.6493 118.556 32.297 118.706 32.0376 119.01C31.7785 119.314 31.6494 119.708 31.6494 120.194C31.6494 121.328 32.2559 121.893 33.471 121.893H34.2486ZM31.3451 115.837C31.3451 115.627 31.4221 115.443 31.5763 115.285C31.7295 115.127 31.9165 115.047 32.1348 115.047C32.354 115.047 32.5402 115.123 32.6944 115.273C32.8475 115.423 32.9245 115.611 32.9245 115.837C32.9245 116.055 32.8494 116.241 32.7003 116.395C32.5502 116.549 32.3619 116.625 32.1348 116.625C31.9075 116.625 31.7195 116.549 31.5702 116.395C31.4201 116.241 31.3451 116.055 31.3451 115.837ZM37.0564 123.155H33.2888C31.1268 123.155 30.0449 122.217 30.0449 120.34C30.0449 119.482 30.3161 118.76 30.8587 118.173C31.4021 117.587 32.1998 117.293 33.2529 117.293C33.6822 117.293 34.1096 117.329 34.535 117.397C34.9603 117.465 35.2777 117.537 35.4888 117.609L35.8041 117.719V121.893H37.0564V123.155Z" fill="#363087"/>
<path d="M39.5125 125.389C39.3583 125.235 39.2823 125.049 39.2823 124.831C39.2823 124.611 39.3583 124.425 39.5125 124.271C39.6667 124.117 39.8527 124.041 40.072 124.041C40.2822 124.041 40.4664 124.117 40.6244 124.271C40.7827 124.425 40.8617 124.611 40.8617 124.831C40.8617 125.041 40.7847 125.225 40.6305 125.383C40.4764 125.541 40.2901 125.618 40.072 125.618C39.8527 125.618 39.6667 125.543 39.5125 125.389ZM37.5688 125.389C37.4146 125.235 37.3374 125.049 37.3374 124.831C37.3374 124.611 37.4146 124.425 37.5688 124.271C37.7219 124.117 37.909 124.041 38.1273 124.041C38.3385 124.041 38.5227 124.117 38.6807 124.271C38.838 124.425 38.917 124.611 38.917 124.831C38.917 125.041 38.8398 125.225 38.6866 125.383C38.5327 125.541 38.3464 125.618 38.1273 125.618C37.909 125.618 37.7219 125.543 37.5688 125.389ZM36.8761 123.155C36.7299 123.155 36.5718 123.095 36.4017 122.973C36.2324 122.851 36.1475 122.701 36.1475 122.523C36.1475 122.353 36.2324 122.207 36.4017 122.081C36.5718 121.955 36.7299 121.893 36.8761 121.893H38.3095V117.45H39.9138V121.893H41.165V123.155H36.8761Z" fill="#363087"/>
<path d="M45.1003 115.837C45.1003 115.627 45.1773 115.443 45.3316 115.285C45.4847 115.127 45.6719 115.047 45.89 115.047C46.1012 115.047 46.2854 115.125 46.4437 115.279C46.6006 115.433 46.6797 115.619 46.6797 115.837C46.6797 116.047 46.6028 116.231 46.4496 116.389C46.2954 116.547 46.1093 116.625 45.89 116.625C45.6719 116.625 45.4847 116.549 45.3316 116.395C45.1773 116.241 45.1003 116.055 45.1003 115.837ZM46.2543 121.893V120.278C46.2543 119.13 45.8211 118.556 44.9551 118.556C44.5087 118.556 44.1565 118.706 43.8973 119.01C43.638 119.314 43.5089 119.708 43.5089 120.194C43.5089 120.768 43.6559 121.196 43.9522 121.474C44.2475 121.754 44.7081 121.893 45.3316 121.893H46.2543ZM43.1566 115.837C43.1566 115.627 43.2336 115.443 43.3878 115.285C43.541 115.127 43.727 115.047 43.9463 115.047C44.1644 115.047 44.3517 115.123 44.5048 115.273C44.659 115.423 44.7361 115.611 44.7361 115.837C44.7361 116.055 44.6609 116.241 44.5108 116.395C44.3617 116.549 44.1724 116.625 43.9463 116.625C43.719 116.625 43.531 116.549 43.3806 116.395C43.2316 116.241 43.1566 116.055 43.1566 115.837ZM47.8219 123.155H40.9816C40.8353 123.155 40.6773 123.095 40.5072 122.973C40.3379 122.851 40.2529 122.702 40.2529 122.523C40.2529 122.353 40.3379 122.207 40.5072 122.082C40.6773 121.956 40.8353 121.893 40.9816 121.893H41.9175C42.0465 121.893 42.1676 121.902 42.2818 121.918C42.3949 121.934 42.476 121.95 42.525 121.966L42.5971 121.978C42.1435 121.646 41.9175 121.068 41.9175 120.242C41.9175 119.418 42.1946 118.72 42.7492 118.148C43.3037 117.579 44.0795 117.293 45.0762 117.293C45.999 117.293 46.6879 117.539 47.1422 118.029C47.5956 118.517 47.8219 119.202 47.8219 120.084V123.155Z" fill="#363087"/>
<path d="M48.6966 126.238C48.3393 126.238 47.9991 126.196 47.6758 126.116L47.7969 124.843C48.1291 124.939 48.4575 124.989 48.7817 124.989C49.2192 124.989 49.5463 124.861 49.7656 124.605C49.9837 124.351 50.0939 123.911 50.0939 123.289V117.45H51.6973V121.893H52.9486V123.155H51.6973V123.203C51.6973 123.633 51.6553 124.013 51.5703 124.345C51.4852 124.677 51.3371 124.993 51.126 125.291C50.9156 125.591 50.6054 125.823 50.1969 125.988C49.7875 126.154 49.2872 126.238 48.6966 126.238Z" fill="#363087"/>
<path d="M58.4906 115.897C58.4906 115.687 58.5696 115.503 58.7278 115.345C58.8859 115.187 59.0702 115.11 59.2803 115.11C59.4996 115.11 59.6857 115.185 59.8398 115.339C59.9929 115.493 60.07 115.679 60.07 115.897C60.07 116.109 59.9929 116.293 59.8398 116.449C59.6857 116.607 59.4996 116.687 59.2803 116.687C59.0702 116.687 58.8859 116.609 58.7278 116.457C58.5696 116.303 58.4906 116.117 58.4906 115.897ZM57.4946 114.308C57.4946 114.098 57.5718 113.914 57.7248 113.756C57.879 113.598 58.0653 113.52 58.2843 113.52C58.5027 113.52 58.6886 113.596 58.8429 113.75C58.9971 113.904 59.074 114.09 59.074 114.308C59.074 114.518 58.9971 114.702 58.8429 114.859C58.6886 115.018 58.5027 115.097 58.2843 115.097C58.0653 115.097 57.879 115.02 57.7248 114.866C57.5718 114.714 57.4946 114.526 57.4946 114.308ZM56.4859 115.897C56.4859 115.687 56.5628 115.503 56.717 115.345C56.8712 115.187 57.0572 115.11 57.2756 115.11C57.4866 115.11 57.6709 115.185 57.8289 115.339C57.9862 115.493 58.0653 115.679 58.0653 115.897C58.0653 116.109 57.9862 116.293 57.8289 116.449C57.6709 116.607 57.4866 116.687 57.2756 116.687C57.0572 116.687 56.8712 116.609 56.717 116.457C56.5628 116.303 56.4859 116.117 56.4859 115.897ZM60.3983 123.156C59.7336 123.156 59.2323 123.097 58.8919 122.98C58.5517 122.862 58.2964 122.642 58.1262 122.318C57.9973 122.594 57.772 122.817 57.4516 122.992C57.1324 123.166 56.745 123.253 56.2917 123.253C55.8942 123.253 55.5479 123.168 55.2526 122.997C54.9574 122.828 54.7602 122.598 54.663 122.306C54.4208 122.872 53.8813 123.156 53.0475 123.156H52.6221C52.4762 123.156 52.3178 123.096 52.1478 122.974C51.9787 122.852 51.8936 122.702 51.8936 122.524C51.8936 122.354 51.9787 122.208 52.1478 122.082C52.3178 121.956 52.4762 121.894 52.6221 121.894H53.0596C53.465 121.894 53.7482 121.788 53.9104 121.578C54.0716 121.368 54.1527 120.97 54.1527 120.388V118.179H55.757V120.424C55.757 121.008 55.8121 121.414 55.9212 121.644C56.0302 121.876 56.2555 121.99 56.5959 121.99C56.9271 121.99 57.1745 121.874 57.3365 121.638C57.4987 121.404 57.5798 121.004 57.5798 120.436V117.695H59.1233V120.74C59.1233 121.21 59.2222 121.52 59.4204 121.668C59.6186 121.818 60.002 121.894 60.5685 121.894H60.8969C60.9448 121.408 60.9699 120.922 60.9699 120.436C60.9699 119.32 60.8517 118.237 60.6175 117.185L62.185 116.965C62.4441 118.059 62.5734 119.178 62.5734 120.328C62.5734 120.894 62.5573 121.416 62.5253 121.894H63.7274V123.156H60.3983Z" fill="#363087"/>
<path d="M66.5829 123.155H63.545C63.399 123.155 63.2407 123.095 63.0707 122.973C62.9016 122.851 62.8164 122.701 62.8164 122.523C62.8164 122.353 62.9016 122.208 63.0707 122.082C63.2407 121.956 63.399 121.894 63.545 121.894H64.9784V114.599H66.5829V123.155Z" fill="#363087"/>
<path d="M68.5264 114.6H70.1309V123.156H68.5264V114.6Z" fill="#363087"/>
<path d="M77.6267 115.837C77.6267 115.627 77.7038 115.443 77.858 115.285C78.0121 115.127 78.1983 115.047 78.4164 115.047C78.6276 115.047 78.8119 115.125 78.9701 115.279C79.1282 115.433 79.2061 115.619 79.2061 115.837C79.2061 116.047 79.1292 116.231 78.9761 116.389C78.8218 116.547 78.6358 116.625 78.4164 116.625C78.1983 116.625 78.0121 116.549 77.858 116.395C77.7038 116.241 77.6267 116.055 77.6267 115.837ZM78.5866 121.893V118.774C78.2795 118.629 77.8942 118.556 77.4325 118.556C76.9871 118.556 76.6349 118.706 76.3756 119.01C76.1164 119.314 75.9873 119.708 75.9873 120.194C75.9873 121.328 76.5938 121.893 77.809 121.893H78.5866ZM75.6831 115.837C75.6831 115.627 75.76 115.443 75.9143 115.285C76.0674 115.127 76.2544 115.047 76.4728 115.047C76.6919 115.047 76.8781 115.123 77.0323 115.273C77.1855 115.423 77.2625 115.611 77.2625 115.837C77.2625 116.055 77.1873 116.241 77.0383 116.395C76.8882 116.549 76.6998 116.625 76.4728 116.625C76.2455 116.625 76.0575 116.549 75.9081 116.395C75.758 116.241 75.6831 116.055 75.6831 115.837ZM81.3943 123.155H77.6267C75.4647 123.155 74.3828 122.217 74.3828 120.34C74.3828 119.482 74.6541 118.76 75.1967 118.173C75.7401 117.587 76.5378 117.293 77.5909 117.293C78.02 117.293 78.4475 117.329 78.8728 117.397C79.2983 117.465 79.6157 117.537 79.8267 117.609L80.1421 117.719V121.893H81.3943V123.155Z" fill="#363087"/>
<path d="M85.2939 115.837C85.2939 115.627 85.371 115.443 85.5241 115.285C85.6782 115.127 85.8645 115.047 86.0836 115.047C86.2938 115.047 86.478 115.125 86.6362 115.279C86.7943 115.433 86.8733 115.619 86.8733 115.837C86.8733 116.047 86.7963 116.231 86.6422 116.389C86.488 116.547 86.3019 116.625 86.0836 116.625C85.8645 116.625 85.6782 116.549 85.5241 116.395C85.371 116.241 85.2939 116.055 85.2939 115.837ZM85.0748 121.893C85.4721 121.893 85.7983 121.748 86.0525 121.456C86.3078 121.166 86.4359 120.748 86.4359 120.206C86.4359 119.106 85.9905 118.556 85.0997 118.556C84.7185 118.556 84.3963 118.692 84.1328 118.968C83.8695 119.244 83.7384 119.648 83.7384 120.182C83.7384 121.322 84.1838 121.893 85.0748 121.893ZM83.3493 115.837C83.3493 115.627 83.4262 115.443 83.5804 115.285C83.7346 115.127 83.9205 115.047 84.1399 115.047C84.358 115.047 84.5442 115.123 84.6984 115.273C84.8527 115.423 84.9296 115.611 84.9296 115.837C84.9296 116.055 84.8545 116.241 84.7044 116.395C84.5543 116.549 84.3659 116.625 84.1399 116.625C83.9126 116.625 83.7245 116.549 83.5743 116.395C83.4242 116.241 83.3493 116.055 83.3493 115.837ZM88.7941 123.155H81.2112C81.065 123.155 80.9068 123.095 80.7367 122.973C80.5676 122.851 80.4824 122.702 80.4824 122.523C80.4824 122.353 80.5676 122.207 80.7367 122.082C80.9068 121.956 81.065 121.893 81.2112 121.893H81.9399L82.6934 121.953C82.3122 121.574 82.1222 121.028 82.1222 120.316C82.1222 119.434 82.4102 118.708 82.9849 118.143C83.5603 117.577 84.305 117.293 85.2209 117.293C86.1037 117.293 86.7943 117.531 87.2928 118.003C87.7912 118.476 88.0393 119.182 88.0393 120.122C88.0393 120.486 87.9793 120.836 87.8572 121.172C87.7371 121.508 87.5619 121.768 87.3348 121.953C87.6751 121.914 87.9875 121.893 88.2718 121.893H88.7941V123.155Z" fill="#363087"/>
<path d="M91.6371 121.894H93.593C94.3056 121.894 94.8061 121.738 95.0942 121.426C95.3806 121.114 95.5248 120.688 95.5248 120.146C95.5248 119.094 95.1083 118.569 94.2736 118.569C93.6429 118.569 93.0765 118.9 92.578 119.562C92.0816 120.226 91.7673 121.004 91.6371 121.894ZM93.4468 123.155H88.6124C88.4664 123.155 88.308 123.095 88.138 122.973C87.9679 122.851 87.8838 122.702 87.8838 122.524C87.8838 122.354 87.9679 122.208 88.138 122.082C88.308 121.956 88.4664 121.894 88.6124 121.894H90.0458V114.6H91.6492V117.755C91.6492 118.435 91.6013 119.032 91.5029 119.55H91.5271C91.7872 118.838 92.1977 118.285 92.7622 117.889C93.3248 117.493 93.9373 117.293 94.602 117.293C95.4367 117.293 96.0732 117.537 96.5097 118.023C96.9481 118.507 97.1662 119.182 97.1662 120.048C97.1662 120.792 96.992 121.408 96.6439 121.894H97.9549V123.155H93.6429H93.4468Z" fill="#363087"/>
<path d="M99.4202 116.463C99.2538 116.297 99.1718 116.101 99.1718 115.873C99.1718 115.647 99.2538 115.451 99.4202 115.285C99.5864 115.119 99.7824 115.035 100.011 115.035C100.237 115.035 100.433 115.119 100.599 115.285C100.765 115.451 100.847 115.647 100.847 115.873C100.847 116.101 100.765 116.297 100.599 116.463C100.433 116.629 100.237 116.711 100.011 116.711C99.7824 116.711 99.5864 116.629 99.4202 116.463ZM97.7746 123.155C97.6285 123.155 97.4703 123.096 97.3001 122.973C97.1301 122.852 97.0459 122.701 97.0459 122.524C97.0459 122.354 97.1301 122.208 97.3001 122.082C97.4703 121.956 97.6285 121.894 97.7746 121.894H99.2079V117.451H100.811V121.894H102.063V123.155H97.7746Z" fill="#363087"/>
<path d="M107.505 121.894V120.278C107.505 119.13 107.073 118.556 106.206 118.556C105.76 118.556 105.407 118.706 105.149 119.01C104.889 119.314 104.761 119.708 104.761 120.194C104.761 120.768 104.909 121.196 105.203 121.474C105.499 121.754 105.96 121.894 106.582 121.894H107.505ZM106.582 123.155C105.774 123.155 105.177 123.079 104.797 122.925C104.416 122.771 104.104 122.536 103.862 122.222C103.618 122.843 103.043 123.155 102.136 123.155H101.88C101.734 123.155 101.576 123.095 101.406 122.973C101.238 122.851 101.151 122.701 101.151 122.523C101.151 122.354 101.238 122.208 101.406 122.081C101.576 121.956 101.734 121.894 101.88 121.894H101.966C102.355 121.894 102.653 121.768 102.859 121.518C103.065 121.266 103.169 120.842 103.169 120.242C103.169 119.418 103.446 118.72 104 118.149C104.555 117.579 105.331 117.293 106.328 117.293C107.251 117.293 107.94 117.539 108.394 118.029C108.847 118.516 109.073 119.202 109.073 120.084V121.894H110.046V123.155H106.582Z" fill="#363087"/>
<path d="M112.9 123.155H109.863C109.717 123.155 109.559 123.095 109.389 122.973C109.219 122.851 109.135 122.701 109.135 122.523C109.135 122.353 109.219 122.208 109.389 122.081C109.559 121.955 109.717 121.894 109.863 121.894H111.297V114.599H112.9V123.155Z" fill="#363087"/>
<path d="M114.843 114.6H116.448V123.156H114.843V114.6Z" fill="#363087"/>
<path d="M123.944 115.837C123.944 115.627 124.022 115.443 124.176 115.285C124.33 115.127 124.517 115.047 124.735 115.047C124.945 115.047 125.129 115.125 125.287 115.279C125.445 115.433 125.523 115.619 125.523 115.837C125.523 116.047 125.447 116.231 125.293 116.389C125.139 116.547 124.953 116.625 124.735 116.625C124.517 116.625 124.33 116.549 124.176 116.395C124.022 116.241 123.944 116.055 123.944 115.837ZM124.905 121.893V118.774C124.597 118.629 124.212 118.556 123.75 118.556C123.306 118.556 122.953 118.706 122.693 119.01C122.435 119.314 122.305 119.708 122.305 120.194C122.305 121.328 122.911 121.893 124.126 121.893H124.905ZM122 115.837C122 115.627 122.078 115.443 122.233 115.285C122.385 115.127 122.573 115.047 122.791 115.047C123.009 115.047 123.195 115.123 123.35 115.273C123.504 115.423 123.58 115.611 123.58 115.837C123.58 116.055 123.506 116.241 123.356 116.395C123.205 116.549 123.017 116.625 122.791 116.625C122.563 116.625 122.375 116.549 122.226 116.395C122.076 116.241 122 116.055 122 115.837ZM127.712 123.155H123.944C121.782 123.155 120.701 122.217 120.701 120.34C120.701 119.482 120.971 118.76 121.514 118.173C122.058 117.587 122.855 117.293 123.908 117.293C124.338 117.293 124.765 117.329 125.191 117.397C125.616 117.465 125.934 117.537 126.144 117.609L126.46 117.719V121.893H127.712V123.155Z" fill="#363087"/>
<path d="M129.177 116.463C129.011 116.297 128.927 116.101 128.927 115.873C128.927 115.647 129.011 115.451 129.177 115.285C129.343 115.119 129.539 115.035 129.766 115.035C129.992 115.035 130.188 115.119 130.354 115.285C130.52 115.451 130.604 115.647 130.604 115.873C130.604 116.101 130.52 116.297 130.354 116.463C130.188 116.629 129.992 116.711 129.766 116.711C129.539 116.711 129.343 116.629 129.177 116.463ZM130.568 123.155H127.53C127.383 123.155 127.225 123.096 127.055 122.973C126.887 122.852 126.801 122.701 126.801 122.524C126.801 122.354 126.887 122.208 127.055 122.082C127.225 121.956 127.383 121.894 127.53 121.894H128.963V117.451H130.568V123.155Z" fill="#363087"/>
<path d="M132.512 123.155V114.599H134.115V121.894H135.366V123.155H132.512Z" fill="#363087"/>
<path d="M140.457 121.894V120.278C140.457 119.13 140.025 118.556 139.158 118.556C138.712 118.556 138.359 118.706 138.101 119.01C137.841 119.314 137.713 119.708 137.713 120.194C137.713 120.768 137.859 121.196 138.155 121.474C138.452 121.754 138.912 121.894 139.535 121.894H140.457ZM142.025 123.155H135.185C135.038 123.155 134.88 123.095 134.71 122.973C134.542 122.851 134.456 122.701 134.456 122.523C134.456 122.354 134.542 122.207 134.71 122.081C134.88 121.955 135.038 121.894 135.185 121.894H136.121C136.25 121.894 136.372 121.901 136.486 121.918C136.598 121.933 136.68 121.949 136.728 121.966L136.8 121.977C136.348 121.646 136.121 121.068 136.121 120.242C136.121 119.418 136.398 118.72 136.952 118.149C137.507 117.579 138.283 117.293 139.28 117.293C140.203 117.293 140.892 117.539 141.346 118.028C141.799 118.516 142.025 119.202 142.025 120.084V123.155Z" fill="#363087"/>
<path d="M143.775 114.963H145.38V123.155H143.775V114.963ZM142.924 114.355V113.481C143.184 113.481 143.426 113.507 143.655 113.555C143.45 113.449 143.35 113.271 143.35 113.022C143.35 112.682 143.5 112.388 143.799 112.142C144.099 111.894 144.545 111.772 145.136 111.772C145.274 111.772 145.512 111.796 145.853 111.844L145.694 112.694C145.452 112.645 145.234 112.62 145.04 112.62C144.642 112.62 144.443 112.757 144.443 113.033C144.443 113.334 144.736 113.481 145.318 113.481H146.059V114.355H142.924Z" fill="#363087"/>
<path d="M146.606 129.783H30.0479V128.975H146.606V129.783Z" fill="#008C9D"/>
<path d="M22.3828 140.797V134.177H26.8487V135.331H23.7841V136.909H26.619V138.063H23.7841V139.643H26.8617V140.797H22.3828ZM29.3543 140.891C29.0372 140.891 28.7546 140.836 28.5065 140.726C28.2584 140.614 28.062 140.449 27.9175 140.232C27.7751 140.012 27.7039 139.738 27.7039 139.411C27.7039 139.135 27.7546 138.903 27.856 138.716C27.9574 138.528 28.0955 138.377 28.2702 138.263C28.445 138.149 28.6435 138.063 28.8657 138.005C29.0901 137.946 29.3252 137.906 29.5712 137.882C29.8603 137.852 30.0933 137.824 30.2702 137.798C30.4471 137.77 30.5755 137.729 30.6553 137.675C30.7351 137.621 30.775 137.541 30.775 137.436V137.416C30.775 137.212 30.7103 137.053 30.5809 136.941C30.4536 136.829 30.2724 136.773 30.0372 136.773C29.7891 136.773 29.5917 136.828 29.445 136.938C29.2983 137.046 29.2012 137.181 29.1537 137.345L27.8787 137.242C27.9434 136.94 28.0707 136.679 28.2605 136.46C28.4504 136.238 28.6953 136.067 28.9951 135.949C29.2972 135.828 29.6467 135.768 30.0437 135.768C30.3198 135.768 30.5841 135.8 30.8365 135.865C31.0911 135.929 31.3165 136.03 31.5129 136.165C31.7114 136.301 31.8678 136.476 31.9821 136.689C32.0965 136.9 32.1536 137.153 32.1536 137.449V140.797H30.8462V140.109H30.8074C30.7276 140.264 30.6208 140.401 30.487 140.519C30.3532 140.636 30.1925 140.727 30.0048 140.794C29.8171 140.859 29.6003 140.891 29.3543 140.891ZM29.7492 139.941C29.952 139.941 30.131 139.901 30.2864 139.821C30.4417 139.739 30.5636 139.629 30.652 139.491C30.7405 139.354 30.7847 139.197 30.7847 139.023V138.496C30.7416 138.524 30.6823 138.55 30.6067 138.573C30.5334 138.595 30.4503 138.616 30.3576 138.635C30.2648 138.652 30.172 138.668 30.0792 138.683C29.9865 138.696 29.9023 138.708 29.8268 138.719C29.665 138.743 29.5237 138.78 29.4029 138.832C29.2821 138.884 29.1882 138.954 29.1213 139.042C29.0545 139.128 29.021 139.236 29.021 139.365C29.021 139.553 29.089 139.696 29.2249 139.795C29.363 139.892 29.5377 139.941 29.7492 139.941ZM37.3591 137.248L36.0969 137.326C36.0754 137.218 36.029 137.121 35.9578 137.035C35.8866 136.946 35.7927 136.876 35.6762 136.825C35.5619 136.771 35.4249 136.744 35.2652 136.744C35.0516 136.744 34.8715 136.789 34.7248 136.88C34.5781 136.968 34.5047 137.087 34.5047 137.235C34.5047 137.354 34.5522 137.454 34.6471 137.536C34.742 137.618 34.9049 137.684 35.1358 137.733L36.0354 137.914C36.5187 138.013 36.879 138.173 37.1163 138.392C37.3536 138.612 37.4723 138.901 37.4723 139.259C37.4723 139.584 37.3763 139.87 37.1843 140.115C36.9944 140.361 36.7334 140.553 36.4011 140.691C36.071 140.827 35.6902 140.894 35.2588 140.894C34.6007 140.894 34.0765 140.758 33.686 140.484C33.2976 140.208 33.07 139.833 33.0031 139.359L34.3591 139.288C34.4001 139.488 34.4993 139.641 34.6568 139.747C34.8143 139.85 35.016 139.902 35.262 139.902C35.5036 139.902 35.6978 139.856 35.8445 139.763C35.9934 139.668 36.0689 139.546 36.071 139.398C36.0689 139.273 36.016 139.17 35.9125 139.091C35.8089 139.009 35.6492 138.946 35.4335 138.903L34.5727 138.732C34.0873 138.635 33.7259 138.467 33.4886 138.228C33.2534 137.988 33.1358 137.684 33.1358 137.313C33.1358 136.994 33.2221 136.719 33.3947 136.489C33.5695 136.258 33.8143 136.08 34.1293 135.955C34.4465 135.83 34.8176 135.768 35.2426 135.768C35.8704 135.768 36.3644 135.9 36.7247 136.165C37.0872 136.43 37.2986 136.791 37.3591 137.248ZM40.9844 135.832V136.867H37.9909V135.832H40.9844ZM38.6705 134.643H40.049V139.272C40.049 139.399 40.0685 139.498 40.1074 139.569C40.1461 139.638 40.2001 139.687 40.2691 139.715C40.3404 139.743 40.4223 139.757 40.5151 139.757C40.5799 139.757 40.6445 139.751 40.7093 139.74C40.774 139.728 40.8236 139.718 40.8582 139.711L41.0749 140.736C41.006 140.758 40.9089 140.782 40.7838 140.81C40.6586 140.84 40.5065 140.859 40.3275 140.865C39.9951 140.878 39.704 140.834 39.4537 140.733C39.2056 140.631 39.0125 140.474 38.8743 140.261C38.7363 140.047 38.6683 139.778 38.6705 139.453V134.643ZM44.0943 140.894C43.5831 140.894 43.1429 140.791 42.7739 140.584C42.4072 140.375 42.1245 140.08 41.926 139.698C41.7277 139.315 41.6284 138.861 41.6284 138.338C41.6284 137.827 41.7277 137.379 41.926 136.993C42.1245 136.607 42.404 136.307 42.7643 136.091C43.1266 135.875 43.5517 135.768 44.0393 135.768C44.3672 135.768 44.6725 135.821 44.9552 135.926C45.2399 136.03 45.488 136.186 45.6994 136.395C45.9131 136.604 46.0792 136.867 46.1978 137.184C46.3165 137.498 46.3758 137.867 46.3758 138.289V138.667H42.1786V137.814H45.0782C45.0782 137.616 45.035 137.44 44.9486 137.287C44.8624 137.134 44.7426 137.014 44.5895 136.928C44.4384 136.84 44.2626 136.796 44.062 136.796C43.8528 136.796 43.6671 136.844 43.5054 136.941C43.3457 137.036 43.2205 137.164 43.13 137.326C43.0393 137.485 42.9929 137.663 42.9908 137.859V138.67C42.9908 138.916 43.0361 139.128 43.1266 139.307C43.2195 139.486 43.3499 139.624 43.5183 139.721C43.6866 139.818 43.8862 139.866 44.117 139.866C44.2701 139.866 44.4104 139.845 44.5377 139.802C44.665 139.759 44.7739 139.694 44.8645 139.608C44.9552 139.522 45.0241 139.416 45.0716 139.291L46.3467 139.375C46.282 139.681 46.1492 139.948 45.9486 140.177C45.7501 140.403 45.4934 140.58 45.1785 140.707C44.8656 140.832 44.5043 140.894 44.0943 140.894ZM47.2754 140.797V135.832H48.612V136.699H48.6638C48.7545 136.391 48.9066 136.158 49.1201 136C49.3337 135.841 49.5797 135.761 49.858 135.761C49.9271 135.761 50.0014 135.766 50.0813 135.774C50.1611 135.783 50.2312 135.795 50.2916 135.81V137.032C50.2268 137.012 50.1374 136.995 50.023 136.98C49.9087 136.965 49.8041 136.957 49.7091 136.957C49.5063 136.957 49.325 137.001 49.1654 137.09C49.008 137.176 48.8828 137.297 48.79 137.452C48.6993 137.607 48.6542 137.786 48.6542 137.988V140.797H47.2754ZM52.383 137.927V140.797H51.0044V135.832H52.3182V136.708H52.3766C52.4865 136.42 52.6711 136.191 52.9299 136.023C53.1888 135.853 53.5027 135.768 53.8717 135.768C54.2168 135.768 54.5177 135.843 54.7746 135.994C55.0313 136.145 55.2308 136.36 55.3733 136.641C55.5156 136.918 55.5868 137.25 55.5868 137.636V140.797H54.2082V137.882C54.2103 137.578 54.1327 137.341 53.9752 137.171C53.8176 136.998 53.6009 136.912 53.3248 136.912C53.1391 136.912 52.9753 136.952 52.8328 137.032C52.6925 137.111 52.5826 137.228 52.5028 137.381C52.4251 137.532 52.3851 137.714 52.383 137.927ZM58.8085 140.797V134.177H61.4232C61.9259 134.177 62.3541 134.273 62.7081 134.465C63.0619 134.655 63.3314 134.919 63.5171 135.257C63.7047 135.593 63.7986 135.981 63.7986 136.421C63.7986 136.86 63.7036 137.248 63.5139 137.584C63.3239 137.921 63.0489 138.182 62.6886 138.37C62.3304 138.557 61.8968 138.651 61.3877 138.651H59.721V137.529H61.1612C61.4307 137.529 61.653 137.483 61.8277 137.39C62.0046 137.296 62.1363 137.165 62.2226 136.999C62.3111 136.831 62.3552 136.638 62.3552 136.421C62.3552 136.201 62.3111 136.009 62.2226 135.845C62.1363 135.679 62.0046 135.551 61.8277 135.461C61.6508 135.368 61.4264 135.322 61.1546 135.322H60.2097V140.797H58.8085ZM64.6829 140.797V135.832H66.0194V136.699H66.0712C66.1618 136.391 66.3139 136.158 66.5276 136C66.7411 135.841 66.9871 135.761 67.2653 135.761C67.3344 135.761 67.4089 135.766 67.4887 135.774C67.5684 135.783 67.6386 135.795 67.6989 135.81V137.032C67.6343 137.012 67.5447 136.995 67.4305 136.98C67.316 136.965 67.2114 136.957 67.1165 136.957C66.9137 136.957 66.7325 137.001 66.5728 137.09C66.4153 137.176 66.2902 137.297 66.1974 137.452C66.1068 137.607 66.0615 137.786 66.0615 137.988V140.797H64.6829ZM70.4263 140.894C69.9236 140.894 69.4889 140.788 69.1221 140.574C68.7574 140.359 68.4759 140.059 68.2774 139.676C68.0789 139.29 67.9797 138.843 67.9797 138.334C67.9797 137.821 68.0789 137.373 68.2774 136.99C68.4759 136.604 68.7574 136.304 69.1221 136.091C69.4889 135.875 69.9236 135.768 70.4263 135.768C70.9289 135.768 71.3627 135.875 71.7272 136.091C72.094 136.304 72.3766 136.604 72.5751 136.99C72.7736 137.373 72.8728 137.821 72.8728 138.334C72.8728 138.843 72.7736 139.29 72.5751 139.676C72.3766 140.059 72.094 140.359 71.7272 140.574C71.3627 140.788 70.9289 140.894 70.4263 140.894ZM70.4327 139.828C70.6615 139.828 70.8523 139.763 71.0055 139.634C71.1588 139.502 71.2741 139.323 71.3518 139.097C71.4316 138.871 71.4716 138.613 71.4716 138.325C71.4716 138.036 71.4316 137.778 71.3518 137.552C71.2741 137.326 71.1588 137.147 71.0055 137.015C70.8523 136.884 70.6615 136.818 70.4327 136.818C70.2019 136.818 70.0077 136.884 69.8502 137.015C69.6949 137.147 69.5773 137.326 69.4975 137.552C69.4198 137.778 69.3809 138.036 69.3809 138.325C69.3809 138.613 69.4198 138.871 69.4975 139.097C69.5773 139.323 69.6949 139.502 69.8502 139.634C70.0077 139.763 70.2019 139.828 70.4327 139.828ZM78.2432 135.832L76.5055 140.797H74.9521L73.2142 135.832H74.6706L75.7029 139.385H75.7547L76.7838 135.832H78.2432ZM78.9488 140.797V135.832H80.3274V140.797H78.9488ZM79.6412 135.192C79.4363 135.192 79.2605 135.124 79.1138 134.989C78.9692 134.851 78.897 134.686 78.897 134.494C78.897 134.304 78.9692 134.142 79.1138 134.006C79.2605 133.868 79.4363 133.799 79.6412 133.799C79.8463 133.799 80.0211 133.868 80.1655 134.006C80.3122 134.142 80.3856 134.304 80.3856 134.494C80.3856 134.686 80.3122 134.851 80.1655 134.989C80.0211 135.124 79.8463 135.192 79.6412 135.192ZM82.8103 137.927V140.797H81.4317V135.832H82.7456V136.708H82.8038C82.914 136.42 83.0984 136.191 83.3572 136.023C83.6162 135.853 83.93 135.768 84.299 135.768C84.6442 135.768 84.9452 135.843 85.2019 135.994C85.4586 136.145 85.6581 136.36 85.8006 136.641C85.943 136.918 86.0142 137.25 86.0142 137.636V140.797H84.6355V137.882C84.6376 137.578 84.56 137.341 84.4025 137.171C84.2451 136.998 84.0282 136.912 83.7521 136.912C83.5666 136.912 83.4025 136.952 83.2601 137.032C83.12 137.111 83.0098 137.228 82.93 137.381C82.8524 137.532 82.8124 137.714 82.8103 137.927ZM89.3467 140.894C88.8374 140.894 88.3995 140.787 88.0327 140.571C87.668 140.354 87.3876 140.052 87.1913 139.666C86.9972 139.28 86.9001 138.836 86.9001 138.334C86.9001 137.826 86.9983 137.38 87.1945 136.996C87.393 136.61 87.6746 136.31 88.0391 136.094C88.4038 135.877 88.8374 135.768 89.3401 135.768C89.7738 135.768 90.1535 135.846 90.4793 136.004C90.805 136.161 91.0628 136.382 91.2527 136.666C91.4425 136.951 91.5473 137.285 91.5666 137.668H90.2656C90.229 137.421 90.1319 137.221 89.9745 137.07C89.819 136.917 89.6152 136.841 89.3627 136.841C89.1492 136.841 88.9625 136.899 88.803 137.015C88.6455 137.13 88.5225 137.297 88.434 137.516C88.3456 137.736 88.3013 138.002 88.3013 138.315C88.3013 138.632 88.3444 138.901 88.4308 139.123C88.5191 139.345 88.6432 139.514 88.803 139.631C88.9625 139.747 89.1492 139.805 89.3627 139.805C89.5203 139.805 89.6616 139.773 89.7867 139.708C89.914 139.643 90.0186 139.55 90.1007 139.427C90.1848 139.302 90.2397 139.152 90.2656 138.978H91.5666C91.545 139.357 91.4414 139.691 91.256 139.98C91.0726 140.266 90.819 140.49 90.4955 140.652C90.1719 140.814 89.7888 140.894 89.3467 140.894ZM94.7146 140.894C94.2034 140.894 93.7632 140.791 93.3942 140.584C93.0275 140.375 92.7448 140.08 92.5463 139.698C92.3478 139.315 92.2486 138.861 92.2486 138.338C92.2486 137.827 92.3478 137.379 92.5463 136.993C92.7448 136.607 93.0242 136.307 93.3846 136.091C93.7469 135.875 94.172 135.768 94.6596 135.768C94.9875 135.768 95.2928 135.821 95.5754 135.926C95.8602 136.03 96.1084 136.186 96.3197 136.395C96.5334 136.604 96.6994 136.867 96.8181 137.184C96.9368 137.498 96.9961 137.867 96.9961 138.289V138.667H92.7987V137.814H95.6983C95.6983 137.616 95.6553 137.44 95.5689 137.287C95.4827 137.134 95.3629 137.014 95.2098 136.928C95.0588 136.84 94.8829 136.796 94.6823 136.796C94.4729 136.796 94.2874 136.844 94.1255 136.941C93.966 137.036 93.8408 137.164 93.7502 137.326C93.6596 137.485 93.6132 137.663 93.6111 137.859V138.67C93.6111 138.916 93.6564 139.128 93.7469 139.307C93.8398 139.486 93.9702 139.624 94.1386 139.721C94.3069 139.818 94.5065 139.866 94.7373 139.866C94.8904 139.866 95.0307 139.845 95.158 139.802C95.2853 139.759 95.3942 139.694 95.4848 139.608C95.5754 139.522 95.6444 139.416 95.6919 139.291L96.967 139.375C96.9023 139.681 96.7695 139.948 96.5689 140.177C96.3704 140.403 96.1137 140.58 95.7987 140.707C95.4859 140.832 95.1245 140.894 94.7146 140.894ZM100.031 134.177H101.759L103.584 138.625H103.662L105.487 134.177H107.215V140.797H105.856V136.489H105.801L104.086 140.765H103.16L101.445 136.472H101.39V140.797H100.031V134.177ZM111.531 138.683V135.832H112.91V140.797H111.586V139.895H111.535C111.422 140.186 111.236 140.42 110.975 140.597C110.716 140.774 110.4 140.862 110.027 140.862C109.694 140.862 109.402 140.787 109.15 140.636C108.897 140.485 108.7 140.27 108.557 139.992C108.417 139.715 108.346 139.382 108.344 138.994V135.832H109.722V138.748C109.725 139.041 109.803 139.273 109.959 139.443C110.114 139.613 110.322 139.698 110.583 139.698C110.749 139.698 110.905 139.661 111.049 139.585C111.194 139.508 111.31 139.393 111.399 139.243C111.489 139.092 111.534 138.905 111.531 138.683ZM115.391 137.927V140.797H114.013V135.832H115.327V136.708H115.385C115.495 136.42 115.679 136.191 115.938 136.023C116.197 135.853 116.511 135.768 116.88 135.768C117.225 135.768 117.526 135.843 117.783 135.994C118.04 136.145 118.239 136.36 118.382 136.641C118.524 136.918 118.595 137.25 118.595 137.636V140.797H117.216V137.882C117.219 137.578 117.141 137.341 116.984 137.171C116.826 136.998 116.609 136.912 116.333 136.912C116.148 136.912 115.984 136.952 115.841 137.032C115.701 137.111 115.591 137.228 115.511 137.381C115.433 137.532 115.393 137.714 115.391 137.927ZM119.682 140.797V135.832H121.06V140.797H119.682ZM120.374 135.192C120.169 135.192 119.993 135.124 119.847 134.989C119.702 134.851 119.63 134.686 119.63 134.494C119.63 134.304 119.702 134.142 119.847 134.006C119.993 133.868 120.169 133.799 120.374 133.799C120.579 133.799 120.754 133.868 120.898 134.006C121.045 134.142 121.119 134.304 121.119 134.494C121.119 134.686 121.045 134.851 120.898 134.989C120.754 135.124 120.579 135.192 120.374 135.192ZM124.411 140.894C123.901 140.894 123.463 140.787 123.097 140.571C122.732 140.354 122.452 140.052 122.255 139.666C122.061 139.28 121.964 138.836 121.964 138.334C121.964 137.826 122.062 137.38 122.259 136.996C122.457 136.61 122.739 136.31 123.103 136.094C123.468 135.877 123.901 135.768 124.404 135.768C124.838 135.768 125.217 135.846 125.543 136.004C125.869 136.161 126.127 136.382 126.317 136.666C126.507 136.951 126.611 137.285 126.631 137.668H125.33C125.293 137.421 125.196 137.221 125.038 137.07C124.883 136.917 124.679 136.841 124.427 136.841C124.213 136.841 124.027 136.899 123.867 137.015C123.709 137.13 123.586 137.297 123.498 137.516C123.409 137.736 123.365 138.002 123.365 138.315C123.365 138.632 123.408 138.901 123.495 139.123C123.583 139.345 123.707 139.514 123.867 139.631C124.027 139.747 124.213 139.805 124.427 139.805C124.584 139.805 124.726 139.773 124.851 139.708C124.978 139.643 125.083 139.55 125.165 139.427C125.249 139.302 125.304 139.152 125.33 138.978H126.631C126.609 139.357 126.505 139.691 126.32 139.98C126.137 140.266 125.883 140.49 125.559 140.652C125.236 140.814 124.853 140.894 124.411 140.894ZM127.513 140.797V135.832H128.892V140.797H127.513ZM128.206 135.192C128.001 135.192 127.825 135.124 127.678 134.989C127.534 134.851 127.461 134.686 127.461 134.494C127.461 134.304 127.534 134.142 127.678 134.006C127.825 133.868 128.001 133.799 128.206 133.799C128.411 133.799 128.586 133.868 128.73 134.006C128.877 134.142 128.95 134.304 128.95 134.494C128.95 134.686 128.877 134.851 128.73 134.989C128.586 135.124 128.411 135.192 128.206 135.192ZM129.996 142.659V135.832H131.355V136.666H131.417C131.477 136.533 131.565 136.397 131.679 136.259C131.796 136.119 131.947 136.003 132.132 135.91C132.32 135.815 132.553 135.768 132.831 135.768C133.194 135.768 133.528 135.863 133.834 136.052C134.141 136.24 134.386 136.523 134.569 136.902C134.752 137.28 134.844 137.752 134.844 138.321C134.844 138.875 134.754 139.343 134.575 139.724C134.399 140.104 134.157 140.391 133.851 140.587C133.546 140.781 133.205 140.878 132.828 140.878C132.56 140.878 132.333 140.834 132.145 140.746C131.959 140.657 131.807 140.546 131.689 140.413C131.57 140.277 131.479 140.14 131.417 140.002H131.375V142.659H129.996ZM131.346 138.315C131.346 138.61 131.387 138.868 131.469 139.087C131.551 139.307 131.669 139.479 131.825 139.601C131.98 139.722 132.169 139.782 132.391 139.782C132.615 139.782 132.805 139.721 132.961 139.598C133.116 139.473 133.233 139.301 133.313 139.081C133.395 138.859 133.436 138.604 133.436 138.315C133.436 138.028 133.396 137.776 133.316 137.559C133.237 137.341 133.119 137.171 132.964 137.048C132.808 136.925 132.617 136.864 132.391 136.864C132.167 136.864 131.977 136.923 131.821 137.041C131.668 137.16 131.551 137.328 131.469 137.546C131.387 137.763 131.346 138.02 131.346 138.315ZM137.181 140.891C136.863 140.891 136.581 140.836 136.333 140.726C136.085 140.614 135.888 140.449 135.744 140.232C135.601 140.012 135.53 139.738 135.53 139.411C135.53 139.135 135.581 138.903 135.682 138.716C135.784 138.528 135.922 138.377 136.096 138.263C136.271 138.149 136.47 138.063 136.692 138.005C136.916 137.946 137.151 137.906 137.397 137.882C137.686 137.852 137.92 137.824 138.096 137.798C138.273 137.77 138.402 137.729 138.481 137.675C138.561 137.621 138.601 137.541 138.601 137.436V137.416C138.601 137.212 138.536 137.053 138.407 136.941C138.28 136.829 138.099 136.773 137.863 136.773C137.615 136.773 137.418 136.828 137.271 136.938C137.124 137.046 137.027 137.181 136.98 137.345L135.705 137.242C135.77 136.94 135.897 136.679 136.087 136.46C136.277 136.238 136.521 136.067 136.821 135.949C137.123 135.828 137.473 135.768 137.87 135.768C138.146 135.768 138.41 135.8 138.663 135.865C138.917 135.929 139.143 136.03 139.339 136.165C139.538 136.301 139.694 136.476 139.808 136.689C139.923 136.9 139.98 137.153 139.98 137.449V140.797H138.672V140.109H138.634C138.554 140.264 138.447 140.401 138.313 140.519C138.179 140.636 138.019 140.727 137.831 140.794C137.643 140.859 137.427 140.891 137.181 140.891ZM137.575 139.941C137.778 139.941 137.957 139.901 138.113 139.821C138.268 139.739 138.39 139.629 138.478 139.491C138.567 139.354 138.611 139.197 138.611 139.023V138.496C138.568 138.524 138.508 138.55 138.433 138.573C138.36 138.595 138.277 138.616 138.184 138.635C138.091 138.652 137.998 138.668 137.905 138.683C137.813 138.696 137.729 138.708 137.653 138.719C137.491 138.743 137.35 138.78 137.229 138.832C137.108 138.884 137.014 138.954 136.948 139.042C136.881 139.128 136.847 139.236 136.847 139.365C136.847 139.553 136.915 139.696 137.051 139.795C137.189 139.892 137.364 139.941 137.575 139.941ZM142.428 134.177V140.797H141.049V134.177H142.428ZM143.532 140.797V135.832H144.911V140.797H143.532ZM144.225 135.192C144.02 135.192 143.844 135.124 143.697 134.989C143.553 134.851 143.481 134.686 143.481 134.494C143.481 134.304 143.553 134.142 143.697 134.006C143.844 133.868 144.02 133.799 144.225 133.799C144.43 133.799 144.605 133.868 144.749 134.006C144.896 134.142 144.969 134.304 144.969 134.494C144.969 134.686 144.896 134.851 144.749 134.989C144.605 135.124 144.43 135.192 144.225 135.192ZM148.659 135.832V136.867H145.666V135.832H148.659ZM146.345 134.643H147.724V139.272C147.724 139.399 147.743 139.498 147.782 139.569C147.821 139.638 147.875 139.687 147.944 139.715C148.015 139.743 148.097 139.757 148.19 139.757C148.255 139.757 148.32 139.751 148.384 139.74C148.449 139.728 148.499 139.718 148.533 139.711L148.75 140.736C148.681 140.758 148.584 140.782 148.459 140.81C148.333 140.84 148.181 140.859 148.002 140.865C147.67 140.878 147.379 140.834 147.129 140.733C146.88 140.631 146.687 140.474 146.549 140.261C146.411 140.047 146.343 139.778 146.345 139.453V134.643ZM150.408 142.659C150.234 142.659 150.07 142.645 149.917 142.617C149.766 142.591 149.64 142.558 149.541 142.517L149.852 141.489C150.014 141.539 150.159 141.566 150.289 141.57C150.42 141.574 150.534 141.544 150.628 141.479C150.726 141.415 150.804 141.305 150.865 141.15L150.946 140.94L149.163 135.832H150.612L151.641 139.479H151.693L152.732 135.832H154.192L152.26 141.334C152.167 141.601 152.041 141.834 151.881 142.032C151.723 142.233 151.524 142.387 151.282 142.494C151.041 142.604 150.749 142.659 150.408 142.659Z" fill="#363087"/>
</svg>
